<svg width="34" height="36" viewBox="0 0 34 36" fill="none" xmlns="http://www.w3.org/2000/svg">
<g clip-path="url(#clip0_1_31)">
<path d="M4.99963 15.5559C4.99963 12.9037 6.0532 10.3602 7.92857 8.48484C9.80393 6.60948 12.3475 5.55591 14.9996 5.55591C17.6518 5.55591 20.1953 6.60948 22.0707 8.48484C23.9461 10.3602 24.9996 12.9037 24.9996 15.5559V21.4272L27.4996 25.1772V30.5559H20.4859C20.2016 31.798 19.5041 32.9069 18.5076 33.7011C17.5111 34.4953 16.2745 34.9277 15.0003 34.9277C13.726 34.9277 12.4895 34.4953 11.4929 33.7011C10.4964 32.9069 9.79896 31.798 9.51463 30.5559H2.49963V25.1772L4.99963 21.4272V15.5559ZM12.1346 30.5559C12.3776 31.1137 12.7781 31.5885 13.2871 31.9219C13.796 32.2553 14.3912 32.4329 14.9996 32.4329C15.6081 32.4329 16.2033 32.2553 16.7122 31.9219C17.2211 31.5885 17.6217 31.1137 17.8646 30.5559H12.1346ZM14.9996 8.05591C13.0105 8.05591 11.1029 8.84608 9.69633 10.2526C8.28981 11.6591 7.49963 13.5668 7.49963 15.5559V22.1847L4.99963 25.9347V28.0559H24.9996V25.9347L22.4996 22.1847V15.5559C22.4996 13.5668 21.7095 11.6591 20.3029 10.2526C18.8964 8.84608 16.9888 8.05591 14.9996 8.05591Z" fill="black" fill-opacity="0.59"/>
</g>
<path d="M30.2935 6C31.9503 6 33.2935 4.65685 33.2935 3C33.2935 1.34315 31.9503 0 30.2935 0C28.6366 0 27.2935 1.34315 27.2935 3C27.2935 4.65685 28.6366 6 30.2935 6Z" fill="#B30A0A"/>
<defs>
<clipPath id="clip0_1_31">
<rect width="30" height="30" fill="white" transform="translate(0 5.55591)"/>
</clipPath>
</defs>
</svg>
